<svg width="256" height="256" viewBox="0 0 256 256" fill="none" xmlns="http://www.w3.org/2000/svg">
  <!-- Soft shadow -->
  <circle cx="128" cy="136" r="110" fill="#000000" fill-opacity="0.15" filter="blur(4px)"/>
  
  <!-- Tomato main body -->
  <path d="M128 240 C64 240 18 194 18 130 C18 66 64 20 128 20 C192 20 238 66 238 130 C238 194 192 240 128 240 Z" fill="#E53935"/>
  <path d="M128 232 C72 232 26 186 26 130 C26 74 72 28 128 28 C184 28 230 74 230 130 C230 186 184 232 128 232 Z" fill="#F44336"/>
  
  <!-- Highlights for glossy tomato look -->
  <ellipse cx="80" cy="70" rx="30" ry="15" transform="rotate(-35 80 70)" fill="#FFCDD2" fill-opacity="0.7"/>
  <ellipse cx="65" cy="120" rx="10" ry="35" transform="rotate(-15 65 120)" fill="#FFCDD2" fill-opacity="0.4"/>
  
  <!-- Green leaves (stem) -->
  <path d="M128 20 C110 0 80 10 70 30 C85 30 110 30 128 40 C146 30 171 30 186 30 C176 10 146 0 128 20 Z" fill="#43A047"/>
  <path d="M128 40 C100 50 60 40 50 60 C70 65 100 55 128 45 C156 55 186 65 206 60 C196 40 156 50 128 40 Z" fill="#2E7D32"/>
  
  <!-- Timer dial inside the tomato -->
  <circle cx="128" cy="140" r="55" fill="#212121" stroke="#FFFFFF" stroke-opacity="0.8" stroke-width="4"/>
  <circle cx="128" cy="140" r="45" stroke="#FFFFFF" stroke-opacity="0.3" stroke-width="2" stroke-dasharray="6 6"/>
  <circle cx="128" cy="140" r="45" stroke="#E53935" stroke-width="4" stroke-dasharray="170 300" transform="rotate(-90 128 140)"/>
  
  <!-- Clock hands -->
  <path d="M128 95 L128 140 L150 162" stroke="#FFFFFF" stroke-width="6" stroke-linecap="round" stroke-linejoin="round"/>
  <circle cx="128" cy="140" r="6" fill="#FFFFFF"/>
</svg>
